<?xml version="1.0" standalone="no"?>
<!DOCTYPE svg PUBLIC "-//W3C//DTD SVG 1.1//EN" "http://www.w3.org/Graphics/SVG/1.1/DTD/svg11.dtd" >
<svg xmlns="http://www.w3.org/2000/svg">
<metadata>Generated by IcoMoon</metadata>
<defs>
<font id="inviarobotics" horiz-adv-x="1024">
<font-face units-per-em="1024" ascent="960" descent="-64" />
<missing-glyph horiz-adv-x="1024" />
<glyph unicode="&#x20;" horiz-adv-x="512" d="" />
<glyph unicode="&#xe900;" glyph-name="play" d="M512 960c-282.77 0-512-229.23-512-512s229.23-512 512-512 512 229.23 512 512-229.23 512-512 512zM512 32c-229.75 0-416 186.25-416 416s186.25 416 416 416 416-186.25 416-416-186.25-416-416-416zM384 672l384-224-384-224z" />
<glyph unicode="&#xe901;" glyph-name="play-circle" horiz-adv-x="878" d="M438.857 886.857c242.286 0 438.857-196.571 438.857-438.857s-196.571-438.857-438.857-438.857-438.857 196.571-438.857 438.857 196.571 438.857 438.857 438.857zM658.286 416.571c11.429 6.286 18.286 18.286 18.286 31.429s-6.857 25.143-18.286 31.429l-310.857 182.857c-10.857 6.857-25.143 6.857-36.571 0.571-11.429-6.857-18.286-18.857-18.286-32v-365.714c0-13.143 6.857-25.143 18.286-32 5.714-2.857 12-4.571 18.286-4.571s12.571 1.714 18.286 5.143z" />
<glyph unicode="&#xe902;" glyph-name="minus" d="M810.667 490.667h-597.333c-25.6 0-42.667-17.067-42.667-42.667s17.067-42.667 42.667-42.667h597.333c25.6 0 42.667 17.067 42.667 42.667s-17.067 42.667-42.667 42.667z" />
<glyph unicode="&#xe903;" glyph-name="plus" d="M810.667 490.667h-256v256c0 25.6-17.067 42.667-42.667 42.667s-42.667-17.067-42.667-42.667v-256h-256c-25.6 0-42.667-17.067-42.667-42.667s17.067-42.667 42.667-42.667h256v-256c0-25.6 17.067-42.667 42.667-42.667s42.667 17.067 42.667 42.667v256h256c25.6 0 42.667 17.067 42.667 42.667s-17.067 42.667-42.667 42.667z" />
<glyph unicode="&#xe904;" glyph-name="calendar-o" horiz-adv-x="951" d="M73.143 9.143h804.571v585.143h-804.571v-585.143zM292.571 704v164.571c0 10.286-8 18.286-18.286 18.286h-36.571c-10.286 0-18.286-8-18.286-18.286v-164.571c0-10.286 8-18.286 18.286-18.286h36.571c10.286 0 18.286 8 18.286 18.286zM731.429 704v164.571c0 10.286-8 18.286-18.286 18.286h-36.571c-10.286 0-18.286-8-18.286-18.286v-164.571c0-10.286 8-18.286 18.286-18.286h36.571c10.286 0 18.286 8 18.286 18.286zM950.857 740.571v-731.429c0-40-33.143-73.143-73.143-73.143h-804.571c-40 0-73.143 33.143-73.143 73.143v731.429c0 40 33.143 73.143 73.143 73.143h73.143v54.857c0 50.286 41.143 91.429 91.429 91.429h36.571c50.286 0 91.429-41.143 91.429-91.429v-54.857h219.429v54.857c0 50.286 41.143 91.429 91.429 91.429h36.571c50.286 0 91.429-41.143 91.429-91.429v-54.857h73.143c40 0 73.143-33.143 73.143-73.143z" />
<glyph unicode="&#xe905;" glyph-name="ruby" d="M768 832h-512l-256-256 512-512 512 512-256 256zM128 576l192 192h384l192-192-384-384-384 384zM704 704h-192v-448l320 320-128 128z" />
<glyph unicode="&#xe906;" glyph-name="checklist" horiz-adv-x="765" d="M760.688 443.781l-49.812 49.656c-6.438 6.529-16.938 6.594-23.375 0l-105.001-104.937-120.125-120.375-93.031 93.125c-6.531 6.562-17.031 6.562-23.5 0l-49.719-49.688c-6.531-6.562-6.531-17.062 0-23.562l154.438-154.562c6.562-6.562 17.188-6.562 23.562 0l286.5 286.782c6.625 6.468 6.625 16.968 0.063 23.561zM228.469 379.188l49.687 49.812c42.469 42.375 116.344 42.438 158.781-0.062l25.312-25.312 113.751 108.374v320h-576v-704h320l-91.531 92.125c-43.781 43.937-43.781 115.25 0 159.063zM192 768h320v-64h-320v64zM192 640h320v-64h-320v64zM128 448h-64v64h64v-64zM128 576h-64v64h64v-64zM128 704h-64v64h64v-64zM192 512h64v-64h-64v64z" />
<glyph unicode="&#xe907;" glyph-name="screen" d="M0 896v-640h1024v640h-1024zM960 320h-896v512h896v-512zM672 192h-320l-32-128-64-64h512l-64 64z" />
<glyph unicode="&#xe908;" glyph-name="search" d="M640 959.84c-212.064 0-384-171.936-384-384 0-64.832 16.224-125.856 44.64-179.456l-267.008-266.944 0.224-0.192c-20.864-20.512-33.856-48.928-33.856-80.512 0-62.368 50.56-112.928 112.928-112.928 31.52 0 59.968 12.992 80.48 33.888l-0.064 0.064 266.912 266.88c53.632-28.512 114.752-44.8 179.744-44.8 212.064 0 384 171.936 384 384s-171.936 384-384 384zM153.44 9.696c-10.304-10.688-24.576-17.376-40.512-17.376-31.2 0-56.48 25.248-56.48 56.448 0 15.936 6.72 30.176 17.376 40.512l-0.288 0.256 258.112 258.112c22.56-30.432 49.44-57.312 79.808-79.936l-258.016-258.016zM640 255.808c-176.704 0-320 143.328-320 320 0 176.704 143.296 320 320 320 176.672 0 320-143.296 320-320 0-176.672-143.328-320-320-320zM640 799.84c8.8 0 16-7.168 16-16s-7.2-16-16-16c-106.048 0-192-85.984-192-192 0-8.832-7.168-16-16-16s-16 7.168-16 16c0 123.712 100.256 224 224 224z" />
<glyph unicode="&#xe909;" glyph-name="rocket" horiz-adv-x="967" d="M822.857 704c0 30.286-24.571 54.857-54.857 54.857s-54.857-24.571-54.857-54.857 24.571-54.857 54.857-54.857 54.857 24.571 54.857 54.857zM950.857 868.571c0-189.714-52.571-316-188-452-33.143-32.571-70.857-66.286-111.429-100.571l-11.429-216.571c-0.571-5.714-4-11.429-9.143-14.857l-219.429-128c-2.857-1.714-5.714-2.286-9.143-2.286-4.571 0-9.143 1.714-13.143 5.143l-36.571 36.571c-4.571 5.143-6.286 12-4.571 18.286l48.571 157.714-160.571 160.571-157.714-48.571c-1.714-0.571-3.429-0.571-5.143-0.571-4.571 0-9.714 1.714-13.143 5.143l-36.571 36.571c-5.714 6.286-6.857 15.429-2.857 22.286l128 219.429c3.429 5.143 9.143 8.571 14.857 9.143l216.571 11.429c34.286 40.571 68 78.286 100.571 111.429 142.857 142.286 252 188 450.857 188 10.286 0 19.429-8 19.429-18.286z" />
<glyph unicode="&#xe90a;" glyph-name="chevron-thin-up" d="M132.198 248.781c-13.926-13.722-36.301-13.722-50.125 0s-13.875 35.891 0 49.613l404.89 400.896c13.824 13.722 36.198 13.722 50.125 0l404.89-400.896c13.824-13.722 13.824-35.891 0-49.613-13.875-13.722-36.301-13.722-50.125 0l-379.853 365.619-379.802-365.619z" />
<glyph unicode="&#xe90b;" glyph-name="chevron-thin-down" d="M891.802 647.219c13.926 13.722 36.301 13.722 50.125 0s13.875-35.891 0-49.613l-404.89-400.896c-13.824-13.722-36.198-13.722-50.125 0l-404.89 400.896c-13.824 13.722-13.824 35.891 0 49.613 13.875 13.722 36.301 13.722 50.125 0l379.853-365.619 379.802 365.619z" />
<glyph unicode="&#xe90c;" glyph-name="quote-right" horiz-adv-x="951" d="M438.857 777.143v-402.286c0-161.143-131.429-292.571-292.571-292.571h-36.571c-20 0-36.571 16.571-36.571 36.571v73.143c0 20 16.571 36.571 36.571 36.571h36.571c80.571 0 146.286 65.714 146.286 146.286v18.286c0 30.286-24.571 54.857-54.857 54.857h-128c-60.571 0-109.714 49.143-109.714 109.714v219.429c0 60.571 49.143 109.714 109.714 109.714h219.429c60.571 0 109.714-49.143 109.714-109.714zM950.857 777.143v-402.286c0-161.143-131.429-292.571-292.571-292.571h-36.571c-20 0-36.571 16.571-36.571 36.571v73.143c0 20 16.571 36.571 36.571 36.571h36.571c80.571 0 146.286 65.714 146.286 146.286v18.286c0 30.286-24.571 54.857-54.857 54.857h-128c-60.571 0-109.714 49.143-109.714 109.714v219.429c0 60.571 49.143 109.714 109.714 109.714h219.429c60.571 0 109.714-49.143 109.714-109.714z" />
<glyph unicode="&#xe90d;" glyph-name="quote-left" horiz-adv-x="951" d="M438.857 411.429v-219.429c0-60.571-49.143-109.714-109.714-109.714h-219.429c-60.571 0-109.714 49.143-109.714 109.714v402.286c0 161.143 131.429 292.571 292.571 292.571h36.571c20 0 36.571-16.571 36.571-36.571v-73.143c0-20-16.571-36.571-36.571-36.571h-36.571c-80.571 0-146.286-65.714-146.286-146.286v-18.286c0-30.286 24.571-54.857 54.857-54.857h128c60.571 0 109.714-49.143 109.714-109.714zM950.857 411.429v-219.429c0-60.571-49.143-109.714-109.714-109.714h-219.429c-60.571 0-109.714 49.143-109.714 109.714v402.286c0 161.143 131.429 292.571 292.571 292.571h36.571c20 0 36.571-16.571 36.571-36.571v-73.143c0-20-16.571-36.571-36.571-36.571h-36.571c-80.571 0-146.286-65.714-146.286-146.286v-18.286c0-30.286 24.571-54.857 54.857-54.857h128c60.571 0 109.714-49.143 109.714-109.714z" />
<glyph unicode="&#xe90e;" glyph-name="chevron-with-circle-down" d="M640.256 514.662l-128.256-117.862-128.307 117.862c-10.138 10.035-26.522 10.035-36.762 0-10.086-10.035-10.086-26.368 0-36.352l146.637-143.718c10.189-10.035 26.624-10.035 36.71 0l146.637 143.718c10.189 9.984 10.138 26.317 0 36.352-10.086 10.035-26.47 10.035-36.659 0zM512 939.52c-271.462 0-491.52-220.058-491.52-491.52 0-271.514 220.058-491.52 491.52-491.52s491.52 220.006 491.52 491.52c0 271.462-220.058 491.52-491.52 491.52zM512 20.275c-236.288 0-427.725 191.488-427.725 427.725s191.437 427.725 427.725 427.725c236.186 0 427.725-191.488 427.725-427.725s-191.539-427.725-427.725-427.725z" />
<glyph unicode="&#xe90f;" glyph-name="chevron-with-circle-up" d="M530.381 561.408c-10.189 10.035-26.624 10.035-36.71 0l-146.637-143.718c-10.189-9.984-10.138-26.317 0-36.352 10.086-10.035 26.522-10.035 36.71 0l128.256 117.862 128.307-117.862c10.138-10.035 26.522-10.035 36.762 0 10.086 10.035 10.086 26.368 0 36.352l-146.688 143.718zM512 939.52c-271.462 0-491.52-220.058-491.52-491.52 0-271.514 220.058-491.52 491.52-491.52s491.52 220.006 491.52 491.52c0 271.462-220.058 491.52-491.52 491.52zM512 20.275c-236.288 0-427.725 191.488-427.725 427.725s191.437 427.725 427.725 427.725c236.186 0 427.725-191.488 427.725-427.725s-191.539-427.725-427.725-427.725z" />
<glyph unicode="&#xe910;" glyph-name="chevron-thin-left" d="M711.219 68.198c13.722-13.926 13.722-36.301 0-50.125s-35.891-13.875-49.613 0l-400.896 404.89c-13.722 13.824-13.722 36.198 0 50.125l400.896 404.89c13.722 13.824 35.891 13.824 49.613 0 13.722-13.875 13.722-36.301 0-50.125l-365.619-379.853 365.619-379.802z" />
<glyph unicode="&#xe911;" glyph-name="chevron-thin-right" d="M312.781 827.802c-13.722 13.926-13.722 36.301 0 50.125s35.891 13.875 49.613 0l400.896-404.89c13.722-13.824 13.722-36.198 0-50.125l-400.896-404.89c-13.722-13.824-35.891-13.824-49.613 0-13.722 13.875-13.722 36.301 0 50.125l365.619 379.853-365.619 379.802z" />
<glyph unicode="&#xe912;" glyph-name="calendar" horiz-adv-x="951" d="M73.143 9.143h164.571v164.571h-164.571v-164.571zM274.286 9.143h182.857v164.571h-182.857v-164.571zM73.143 210.286h164.571v182.857h-164.571v-182.857zM274.286 210.286h182.857v182.857h-182.857v-182.857zM73.143 429.714h164.571v164.571h-164.571v-164.571zM493.714 9.143h182.857v164.571h-182.857v-164.571zM274.286 429.714h182.857v164.571h-182.857v-164.571zM713.143 9.143h164.571v164.571h-164.571v-164.571zM493.714 210.286h182.857v182.857h-182.857v-182.857zM292.571 704v164.571c0 9.714-8.571 18.286-18.286 18.286h-36.571c-9.714 0-18.286-8.571-18.286-18.286v-164.571c0-9.714 8.571-18.286 18.286-18.286h36.571c9.714 0 18.286 8.571 18.286 18.286zM713.143 210.286h164.571v182.857h-164.571v-182.857zM493.714 429.714h182.857v164.571h-182.857v-164.571zM713.143 429.714h164.571v164.571h-164.571v-164.571zM731.429 704v164.571c0 9.714-8.571 18.286-18.286 18.286h-36.571c-9.714 0-18.286-8.571-18.286-18.286v-164.571c0-9.714 8.571-18.286 18.286-18.286h36.571c9.714 0 18.286 8.571 18.286 18.286zM950.857 740.571v-731.429c0-40-33.143-73.143-73.143-73.143h-804.571c-40 0-73.143 33.143-73.143 73.143v731.429c0 40 33.143 73.143 73.143 73.143h73.143v54.857c0 50.286 41.143 91.429 91.429 91.429h36.571c50.286 0 91.429-41.143 91.429-91.429v-54.857h219.429v54.857c0 50.286 41.143 91.429 91.429 91.429h36.571c50.286 0 91.429-41.143 91.429-91.429v-54.857h73.143c40 0 73.143-33.143 73.143-73.143z" />
<glyph unicode="&#xe913;" glyph-name="time" d="M512.002 766.788v65.212h128v64c0 35.346-28.654 64-64.002 64h-191.998c-35.346 0-64-28.654-64-64v-64h128v-65.212c-214.798-16.338-384-195.802-384-414.788 0-229.75 186.25-416 416-416s416 186.25 416 416c0 218.984-169.202 398.448-384 414.788zM706.276 125.726c-60.442-60.44-140.798-93.726-226.274-93.726s-165.834 33.286-226.274 93.726c-60.44 60.44-93.726 140.8-93.726 226.274s33.286 165.834 93.726 226.274c58.040 58.038 134.448 91.018 216.114 93.548l-21.678-314.020c-1.86-26.29 12.464-37.802 31.836-37.802s33.698 11.512 31.836 37.802l-21.676 314.022c81.666-2.532 158.076-35.512 216.116-93.55 60.44-60.44 93.726-140.8 93.726-226.274s-33.286-165.834-93.726-226.274z" />
<glyph unicode="&#xe914;" glyph-name="video" d="M511.475-64c-282.519 0-511.475 230.006-511.475 511.475s230.006 511.475 511.475 511.475c282.519 0 511.475-230.006 511.475-511.475s-228.956-511.475-511.475-511.475zM511.475 928.492c-264.665 0-479.967-215.303-479.967-479.967s215.303-479.967 479.967-479.967c264.665 0 479.967 215.303 479.967 479.967 1.050 264.665-215.303 479.967-479.967 479.967zM391.357 600.287c0 9.452 7.352 13.653 15.754 8.402l256.263-154.388c5.251-2.101 7.352-8.402 5.251-12.603-1.050-2.101-3.151-4.201-5.251-5.251l-256.263-154.388c-8.402-5.251-15.754-1.050-15.754 9.452v308.775z" />
<glyph unicode="&#xe915;" glyph-name="down" horiz-adv-x="1629" d="M814.545-64l-814.545 961.939 77.576 62.061 736.97-876.606 736.97 876.606 77.576-62.061z" />
<glyph unicode="&#xe916;" glyph-name="facebook" horiz-adv-x="602" d="M548 953.143v-150.857h-89.714c-70.286 0-83.429-33.714-83.429-82.286v-108h167.429l-22.286-169.143h-145.143v-433.714h-174.857v433.714h-145.714v169.143h145.714v124.571c0 144.571 88.571 223.429 217.714 223.429 61.714 0 114.857-4.571 130.286-6.857z" />
<glyph unicode="&#xe917;" glyph-name="twitter" horiz-adv-x="951" d="M925.714 726.857c-25.143-36.571-56.571-69.143-92.571-95.429 0.571-8 0.571-16 0.571-24 0-244-185.714-525.143-525.143-525.143-104.571 0-201.714 30.286-283.429 82.857 14.857-1.714 29.143-2.286 44.571-2.286 86.286 0 165.714 29.143 229.143 78.857-81.143 1.714-149.143 54.857-172.571 128 11.429-1.714 22.857-2.857 34.857-2.857 16.571 0 33.143 2.286 48.571 6.286-84.571 17.143-148 91.429-148 181.143v2.286c24.571-13.714 53.143-22.286 83.429-23.429-49.714 33.143-82.286 89.714-82.286 153.714 0 34.286 9.143 65.714 25.143 93.143 90.857-112 227.429-185.143 380.571-193.143-2.857 13.714-4.571 28-4.571 42.286 0 101.714 82.286 184.571 184.571 184.571 53.143 0 101.143-22.286 134.857-58.286 41.714 8 81.714 23.429 117.143 44.571-13.714-42.857-42.857-78.857-81.143-101.714 37.143 4 73.143 14.286 106.286 28.571z" />
<glyph unicode="&#xe918;" glyph-name="linkedin-square" horiz-adv-x="878" d="M135.429 152h132v396.571h-132v-396.571zM276 670.857c-0.571 38.857-28.571 68.571-73.714 68.571s-74.857-29.714-74.857-68.571c0-37.714 28.571-68.571 73.143-68.571h0.571c46.286 0 74.857 30.857 74.857 68.571zM610.286 152h132v227.429c0 121.714-65.143 178.286-152 178.286-70.857 0-102.286-39.429-119.429-66.857h1.143v57.714h-132s1.714-37.143 0-396.571v0h132v221.714c0 11.429 0.571 23.429 4 32 9.714 23.429 31.429 48 68 48 47.429 0 66.286-36 66.286-89.714v-212zM877.714 722.286v-548.571c0-90.857-73.714-164.571-164.571-164.571h-548.571c-90.857 0-164.571 73.714-164.571 164.571v548.571c0 90.857 73.714 164.571 164.571 164.571h548.571c90.857 0 164.571-73.714 164.571-164.571z" />
<glyph unicode="&#xe919;" glyph-name="linkedin" d="M384 576h177.106v-90.782h2.532c24.64 44.194 84.958 90.782 174.842 90.782 186.946 0 221.52-116.376 221.52-267.734v-308.266h-184.61v273.278c0 65.184-1.334 149.026-96.028 149.026-96.148 0-110.82-70.986-110.82-144.292v-278.012h-184.542v576zM64 576h192v-576h-192v576zM256 736c0-53.019-42.981-96-96-96s-96 42.981-96 96c0 53.019 42.981 96 96 96s96-42.981 96-96z" />
<glyph unicode="&#xe91a;" glyph-name="two-arrow" d="M916.211 550.4c-3.593 0-7.186 1.796-10.779 3.593-7.186 5.389-8.982 17.965-1.796 25.151l80.842 100.604-80.842 98.807c-5.389 7.186-5.389 19.761 1.796 25.151 7.186 7.186 19.761 5.389 25.151-1.796l89.825-109.586c5.389-7.186 5.389-16.168 0-23.354l-89.825-111.382c-3.593-5.389-8.982-7.186-14.372-7.186zM564.098 501.895c-3.593 0-8.982 1.796-12.575 5.389-7.186 7.186-7.186 17.965-1.796 25.151 91.621 100.604 235.34 165.277 364.688 165.277h89.825c10.779 0 17.965-7.186 17.965-17.965s-7.186-17.965-17.965-17.965h-89.825c-120.365 0-253.305-61.081-339.537-154.498-1.796-3.593-5.389-5.389-10.779-5.389zM17.965 185.712c-10.779 0-17.965 7.186-17.965 17.965s7.186 17.965 17.965 17.965c132.94 0 308.996 71.86 386.246 156.295 7.186 7.186 17.965 7.186 25.151 1.796 7.186-7.186 7.186-17.965 1.796-25.151-84.435-93.418-269.474-168.87-413.193-168.87zM916.211 85.109c-3.593 0-7.186 1.796-10.779 3.593-7.186 5.389-8.982 17.965-1.796 25.151l80.842 97.011-80.842 93.418c-7.186 7.186-5.389 19.761 1.796 25.151s17.965 5.389 25.151-1.796l89.825-104.196c5.389-7.186 5.389-16.168 0-23.354l-89.825-109.586c-3.593-3.593-8.982-5.389-14.372-5.389zM1006.035 194.695h-91.621c-185.039 0-325.165 127.551-459.902 251.509-136.533 123.958-264.084 242.526-436.547 242.526-10.779 0-17.965 7.186-17.965 17.965s7.186 17.965 17.965 17.965c185.039 0 325.165-127.551 459.902-251.509 136.533-123.958 264.084-242.526 436.547-242.526h91.621c10.779 0 17.965-7.186 17.965-17.965s-7.186-17.965-17.965-17.965z" />
<glyph unicode="&#xe91b;" glyph-name="graph" d="M0 72.533h1024v-34.133h-1024v34.133zM102.4 960h34.133v-1024h-34.133v1024zM220.16 93.013c-5.12 0-8.533 1.707-11.947 5.12-6.827 6.827-6.827 17.067 0 23.893l170.667 170.667c6.827 6.827 17.067 6.827 23.893 0l105.813-104.107 121.173 523.947c1.707 6.827 5.12 10.24 11.947 11.947s11.947 0 17.067-5.12l151.893-151.893 119.467 315.733c3.413 8.533 13.653 13.653 22.187 10.24s13.653-13.653 10.24-22.187l-128-341.333c-1.707-5.12-6.827-10.24-11.947-10.24-5.12-1.707-11.947 0-15.36 5.12l-148.48 148.48-121.173-522.24c-1.707-6.827-5.12-10.24-11.947-11.947-5.12-1.707-11.947 0-17.067 3.413l-116.053 114.347-158.72-158.72c-5.12-3.413-8.533-5.12-13.653-5.12z" />
<glyph unicode="&#xe91c;" glyph-name="note" d="M831.45-56.415h-633.363c-32.237 0-56.889 24.652-56.889 56.889v733.867c0 32.237 24.652 56.889 56.889 56.889h633.363c32.237 0 56.889-24.652 56.889-56.889v-733.867c0-30.341-24.652-56.889-56.889-56.889zM199.983 753.304c-11.378 0-18.963-7.585-18.963-18.963v-733.867c0-11.378 7.585-18.963 18.963-18.963h633.363c11.378 0 18.963 7.585 18.963 18.963v733.867c0 11.378-7.585 18.963-18.963 18.963h-633.363zM328.932 770.37c-11.378 0-18.963 7.585-18.963 18.963v51.2c0 11.378 7.585 18.963 18.963 18.963h70.163c7.585 70.163 54.993 100.504 102.4 100.504h41.719c47.407 0 94.815-32.237 102.4-100.504h54.993c11.378 0 18.963-7.585 18.963-18.963v-51.2c0-11.378-7.585-18.963-18.963-18.963s-18.963 7.585-18.963 18.963v32.237h-53.096c-11.378 0-18.963 7.585-18.963 18.963 0 51.2-24.652 81.541-64.474 81.541h-41.719c-41.719 0-64.474-30.341-64.474-81.541 0-11.378-7.585-18.963-18.963-18.963h-70.163v-32.237c-1.896-9.481-9.481-18.963-20.859-18.963zM683.539 518.163h-320.474c-11.378 0-18.963 7.585-18.963 18.963s7.585 18.963 18.963 18.963h320.474c11.378 0 18.963-7.585 18.963-18.963s-9.481-18.963-18.963-18.963zM683.539 383.526h-320.474c-11.378 0-18.963 7.585-18.963 18.963s7.585 18.963 18.963 18.963h320.474c11.378 0 18.963-7.585 18.963-18.963s-9.481-18.963-18.963-18.963zM683.539 246.993h-320.474c-11.378 0-18.963 7.585-18.963 18.963s7.585 18.963 18.963 18.963h320.474c11.378 0 18.963-7.585 18.963-18.963 0-9.481-9.481-18.963-18.963-18.963z" />
<glyph unicode="&#xe91d;" glyph-name="quare" horiz-adv-x="1036" d="M851.428-64h-39.69c-11.907 0-19.845 7.938-19.845 19.845s7.938 19.845 19.845 19.845h39.69c11.907 0 19.845-7.938 19.845-19.845s-9.922-19.845-19.845-19.845zM730.374-64h-39.69c-11.907 0-19.845 7.938-19.845 19.845s7.938 19.845 19.845 19.845h39.69c11.907 0 19.845-7.938 19.845-19.845s-7.938-19.845-19.845-19.845zM611.304-64h-39.69c-11.907 0-19.845 7.938-19.845 19.845s7.938 19.845 19.845 19.845h39.69c11.907 0 19.845-7.938 19.845-19.845s-7.938-19.845-19.845-19.845zM492.234-64h-39.69c-11.907 0-19.845 7.938-19.845 19.845s7.938 19.845 19.845 19.845h39.69c11.907 0 19.845-7.938 19.845-19.845s-9.922-19.845-19.845-19.845zM371.18-64h-39.69c-11.907 0-19.845 7.938-19.845 19.845s7.938 19.845 19.845 19.845h39.69c11.907 0 19.845-7.938 19.845-19.845s-7.938-19.845-19.845-19.845zM252.11-64h-39.69c-11.907 0-19.845 7.938-19.845 19.845s7.938 19.845 19.845 19.845h39.69c11.907 0 19.845-7.938 19.845-19.845s-7.938-19.845-19.845-19.845zM133.041-62.016c-1.984 0-1.984 0-3.969 0-15.876 3.969-29.767 9.922-43.659 15.876-9.922 5.953-11.907 17.86-7.938 27.783 5.953 9.922 17.86 11.907 27.783 7.938 9.922-5.953 19.845-9.922 31.752-11.907 9.922-1.984 17.86-13.891 15.876-23.814s-9.922-15.876-19.845-15.876zM928.824-58.047c-7.938 0-15.876 5.953-17.86 13.891-3.969 9.922 1.984 21.829 11.907 25.798s19.845 7.938 29.767 15.876c7.938 5.953 21.829 3.969 27.783-3.969s3.969-21.829-3.969-27.783c-11.907-9.922-25.798-15.876-39.69-21.829-1.984-1.984-5.953-1.984-7.938-1.984zM43.738 11.411c-7.938 0-13.891 3.969-17.86 11.907-5.953 13.891-9.922 29.767-11.907 43.659-1.984 9.922 5.953 19.845 17.86 21.829 9.922 1.984 19.845-5.953 21.829-17.86s3.969-21.829 9.922-31.752c3.969-9.922 0-21.829-9.922-25.798-3.969-1.984-7.938-1.984-9.922-1.984zM1010.188 25.302c-1.984 0-3.969 0-5.953 0-9.922 3.969-15.876 13.891-11.907 25.798 3.969 9.922 5.953 21.829 5.953 33.736v9.922c0 11.907 7.938 19.845 19.845 19.845s19.845-7.938 19.845-19.845v-9.922c0-15.876-1.984-31.752-7.938-45.643-3.969-9.922-11.907-13.891-19.845-13.891zM31.831 128.496c-11.907 0-19.845 7.938-19.845 19.845v39.69c0 11.907 7.938 19.845 19.845 19.845s19.845-7.938 19.845-19.845v-39.69c0-9.922-7.938-19.845-19.845-19.845zM1016.141 152.31c-11.907 0-19.845 7.938-19.845 19.845v39.69c0 11.907 7.938 19.845 19.845 19.845s19.845-7.938 19.845-19.845v-39.69c0-9.922-7.938-19.845-19.845-19.845zM31.831 249.55c-11.907 0-19.845 7.938-19.845 19.845v39.69c0 11.907 7.938 19.845 19.845 19.845s19.845-7.938 19.845-19.845v-39.69c0-11.907-7.938-19.845-19.845-19.845zM1016.141 271.38c-11.907 0-19.845 7.938-19.845 19.845v39.69c0 11.907 7.938 19.845 19.845 19.845s19.845-7.938 19.845-19.845v-39.69c0-9.922-7.938-19.845-19.845-19.845zM31.831 368.62c-11.907 0-19.845 7.938-19.845 19.845v39.69c0 11.907 7.938 19.845 19.845 19.845s19.845-7.938 19.845-19.845v-39.69c0-11.907-7.938-19.845-19.845-19.845zM1016.141 392.434c-11.907 0-19.845 7.938-19.845 19.845v39.69c0 11.907 7.938 19.845 19.845 19.845s19.845-7.938 19.845-19.845v-39.69c0-11.907-7.938-19.845-19.845-19.845zM31.831 487.69c-11.907 0-19.845 7.938-19.845 19.845v39.69c0 11.907 7.938 19.845 19.845 19.845s19.845-7.938 19.845-19.845v-39.69c0-9.922-7.938-19.845-19.845-19.845zM1016.141 511.504c-11.907 0-19.845 7.938-19.845 19.845v39.69c0 11.907 7.938 19.845 19.845 19.845s19.845-7.938 19.845-19.845v-39.69c0-9.922-7.938-19.845-19.845-19.845zM31.831 606.76c-11.907 0-19.845 7.938-19.845 19.845v39.69c0 11.907 7.938 19.845 19.845 19.845s19.845-7.938 19.845-19.845v-39.69c0-9.922-7.938-19.845-19.845-19.845zM1016.141 630.574c-11.907 0-19.845 7.938-19.845 19.845v39.69c0 11.907 7.938 19.845 19.845 19.845s19.845-7.938 19.845-19.845v-39.69c0-9.922-7.938-19.845-19.845-19.845zM31.831 727.814c-11.907 0-19.845 7.938-19.845 19.845v39.69c0 11.907 7.938 19.845 19.845 19.845s19.845-7.938 19.845-19.845v-39.69c0-11.907-7.938-19.845-19.845-19.845zM1016.141 751.628c-11.907 0-19.845 7.938-19.845 19.845v39.69c0 11.907 7.938 19.845 19.845 19.845s19.845-7.938 19.845-19.845v-39.69c0-11.907-7.938-19.845-19.845-19.845zM43.738 844.899c-1.984 0-5.953 0-7.938 1.984-9.922 3.969-13.891 15.876-9.922 25.798 5.953 13.891 15.876 25.798 25.798 37.705 7.938 7.938 19.845 7.938 27.783 1.984 7.938-7.938 7.938-19.845 1.984-27.783-7.938-7.938-13.891-17.86-17.86-27.783-5.953-7.938-11.907-11.907-19.845-11.907zM992.327 864.744c-5.953 0-11.907 1.984-15.876 7.938-5.953 9.922-13.891 17.86-23.814 23.814-7.938 5.953-9.922 19.845-3.969 27.783s19.845 9.922 27.783 3.969c11.907-9.922 23.814-19.845 31.752-33.736 5.953-9.922 3.969-21.829-3.969-27.783-3.969 0-7.938-1.984-11.907-1.984zM133.041 918.326c-9.922 0-17.86 5.953-19.845 15.876s3.969 21.829 15.876 23.814c9.922 1.984 19.845 3.969 29.767 3.969h13.891c11.907 0 19.845-7.938 19.845-19.845s-7.938-19.845-19.845-19.845h-13.891c-7.938 0-15.876 0-21.829-1.984 0-1.984-1.984-1.984-3.969-1.984zM891.118 920.31c0 0 0 0 0 0h-39.69c-11.907 0-19.845 7.938-19.845 19.845s7.938 19.845 19.845 19.845h39.69c11.907 0 19.845-9.922 19.845-19.845 0-11.907-7.938-19.845-19.845-19.845zM772.048 920.31h-39.69c-11.907 0-19.845 7.938-19.845 19.845s7.938 19.845 19.845 19.845h39.69c11.907 0 19.845-7.938 19.845-19.845s-9.922-19.845-19.845-19.845zM652.979 920.31h-39.69c-11.907 0-19.845 7.938-19.845 19.845s7.938 19.845 19.845 19.845h39.69c11.907 0 19.845-7.938 19.845-19.845s-9.922-19.845-19.845-19.845zM531.924 920.31h-39.69c-11.907 0-19.845 7.938-19.845 19.845s7.938 19.845 19.845 19.845h39.69c11.907 0 19.845-7.938 19.845-19.845s-7.938-19.845-19.845-19.845zM412.855 920.31h-39.69c-11.907 0-19.845 7.938-19.845 19.845s7.938 19.845 19.845 19.845h39.69c11.907 0 19.845-7.938 19.845-19.845s-7.938-19.845-19.845-19.845zM293.785 920.31h-39.69c-11.907 0-19.845 7.938-19.845 19.845s7.938 19.845 19.845 19.845h39.69c11.907 0 19.845-7.938 19.845-19.845s-9.922-19.845-19.845-19.845zM148.837 303.132c-81.364 0-146.853 67.473-148.837 148.837v359.194c0 81.364 67.473 146.853 148.837 148.837h359.194c81.364 0 146.853-67.473 148.837-148.837v-359.194c0 0 0 0 0 0 0-81.364-67.473-146.853-148.837-148.837h-359.194zM508.031 920.31h-359.194c-59.535 0-109.147-49.612-109.147-109.147v-359.194c0-59.535 49.612-109.147 109.147-109.147h359.194c59.535 0 109.147 49.612 109.147 109.147v359.194c0 59.535-49.612 109.147-109.147 109.147zM827.535 124.527c-5.953 0-9.922 1.984-13.891 5.953l-174.636 176.62c-7.938 7.938-7.938 19.845 0 27.783s19.845 7.938 27.783 0l174.636-176.62c7.938-7.938 7.938-19.845 0-27.783-3.969-3.969-9.922-5.953-13.891-5.953zM841.426 98.729h-119.070c-11.907 0-19.845 7.938-19.845 19.845s7.938 19.845 19.845 19.845h99.225v99.225c0 11.907 7.938 19.845 19.845 19.845s19.845-7.938 19.845-19.845v-119.070c0-11.907-7.938-19.845-19.845-19.845z" />
<glyph unicode="&#xe91e;" glyph-name="watch" d="M652.014-5.486c-10.971 0-18.286 7.314-18.286 18.286v133.486h-266.971v-133.486c0-10.971-7.314-18.286-18.286-18.286s-18.286 7.314-18.286 18.286v151.771c0 10.971 7.314 18.286 18.286 18.286h303.543c10.971 0 18.286-7.314 18.286-18.286v-151.771c0-10.971-9.143-18.286-18.286-18.286zM652.014 720.457h-303.543c-10.971 0-18.286 7.314-18.286 18.286v151.771c0 10.971 7.314 18.286 18.286 18.286s18.286-7.314 18.286-18.286v-133.486h266.971v133.486c0 10.971 7.314 18.286 18.286 18.286s18.286-7.314 18.286-18.286v-151.771c0-9.143-9.143-18.286-18.286-18.286zM507.557 230.4c-124.343 0-224.914 100.571-224.914 224.914s100.571 224.914 224.914 224.914c124.343 0 224.914-100.571 224.914-224.914s-100.571-224.914-224.914-224.914zM507.557 643.657c-104.229 0-188.343-84.114-188.343-188.343s84.114-188.343 188.343-188.343c104.229 0 188.343 84.114 188.343 188.343s-84.114 188.343-188.343 188.343zM507.557 437.029c-5.486 0-9.143 1.829-12.8 5.486-7.314 7.314-7.314 18.286 0 25.6l102.4 102.4c7.314 7.314 18.286 7.314 25.6 0s7.314-18.286 0-25.6l-102.4-102.4c-3.657-3.657-7.314-5.486-12.8-5.486zM507.557 437.029c-5.486 0-9.143 1.829-12.8 5.486l-78.629 80.457c-7.314 7.314-7.314 18.286 0 25.6s18.286 7.314 25.6 0l78.629-80.457c7.314-7.314 7.314-18.286 0-25.6-3.657-3.657-7.314-5.486-12.8-5.486zM600.814 923.429h-202.971c-10.971 0-18.286 7.314-18.286 18.286s7.314 18.286 18.286 18.286h202.971c10.971 0 18.286-7.314 18.286-18.286s-9.143-18.286-18.286-18.286zM600.814-56.686h-202.971c-10.971 0-18.286 7.314-18.286 18.286s7.314 18.286 18.286 18.286h202.971c10.971 0 18.286-7.314 18.286-18.286s-9.143-18.286-18.286-18.286zM346.642 872.229c-10.971 0-18.286 7.314-18.286 18.286 0 36.571 7.314 69.486 60.343 69.486 10.971 0 18.286-7.314 18.286-18.286s-7.314-18.286-18.286-18.286c-20.114 0-23.771 0-23.771-32.914 0-9.143-7.314-18.286-18.286-18.286zM652.014 872.229c-10.971 0-18.286 7.314-18.286 18.286 0 9.143 0 32.914-40.229 32.914-10.971 0-18.286 7.314-18.286 18.286s7.314 18.286 18.286 18.286c49.371 0 76.8-25.6 76.8-69.486 0-9.143-9.143-18.286-18.286-18.286zM600.814-56.686c-10.971 0-18.286 7.314-18.286 18.286s7.314 18.286 18.286 18.286c25.6 0 32.914 7.314 32.914 32.914 0 10.971 7.314 18.286 18.286 18.286s18.286-7.314 18.286-18.286c0-45.714-23.771-69.486-69.486-69.486zM397.842-56.686c-45.714 0-69.486 23.771-69.486 69.486 0 10.971 7.314 18.286 18.286 18.286s18.286-7.314 18.286-18.286c0-25.6 7.314-32.914 32.914-32.914 10.971 0 18.286-7.314 18.286-18.286s-7.314-18.286-18.286-18.286z" />
<glyph unicode="&#xe91f;" glyph-name="quare-solid" d="M635.586-71.062h-529.655c-21.186 0-35.31 14.124-35.31 35.31v663.834c0 21.186 14.124 35.31 35.31 35.31h529.655c21.186 0 35.31-14.124 35.31-35.31v-663.834c0-17.655-14.124-35.31-35.31-35.31zM141.241-0.441h459.034v593.214h-459.034v-593.214zM932.193 225.545h-45.903c-21.186 0-35.31 14.124-35.31 35.31s14.124 35.31 35.31 35.31h14.124c3.531 14.124 17.655 24.717 35.31 24.717 21.186 0 35.31-14.124 35.31-35.31v-24.717c-3.531-17.655-17.655-35.31-38.841-35.31zM745.048 225.545h-70.621c-21.186 0-35.31 14.124-35.31 35.31s14.124 35.31 35.31 35.31h70.621c21.186 0 35.31-14.124 35.31-35.31s-14.124-35.31-35.31-35.31zM932.193 391.503c-21.186 0-35.31 14.124-35.31 35.31v70.621c0 21.186 14.124 35.31 35.31 35.31s35.31-14.124 35.31-35.31v-70.621c0-17.655-14.124-35.31-35.31-35.31zM932.193 603.366c-21.186 0-35.31 14.124-35.31 35.31v70.621c0 21.186 14.124 35.31 35.31 35.31s35.31-14.124 35.31-35.31v-70.621c0-17.655-14.124-35.31-35.31-35.31zM370.759 606.897c-21.186 0-35.31 14.124-35.31 35.31v70.621c0 21.186 14.124 35.31 35.31 35.31s35.31-14.124 35.31-35.31v-70.621c0-21.186-14.124-35.31-35.31-35.31zM932.193 815.228c-21.186 0-35.31 14.124-35.31 35.31v70.621c0 21.186 14.124 35.31 35.31 35.31s35.31-14.124 35.31-35.31v-70.621c0-17.655-14.124-35.31-35.31-35.31zM370.759 818.759c-21.186 0-35.31 14.124-35.31 35.31v70.621c0 21.186 14.124 35.31 35.31 35.31s35.31-14.124 35.31-35.31v-70.621c0-21.186-14.124-35.31-35.31-35.31zM794.483 889.379h-70.621c-21.186 0-35.31 14.124-35.31 35.31s14.124 35.31 35.31 35.31h70.621c21.186 0 35.31-14.124 35.31-35.31s-14.124-35.31-35.31-35.31zM582.621 889.379h-70.621c-21.186 0-35.31 14.124-35.31 35.31s14.124 35.31 35.31 35.31h70.621c21.186 0 35.31-14.124 35.31-35.31s-14.124-35.31-35.31-35.31z" />
<glyph unicode="&#xe920;" glyph-name="light" d="M661.449 273.643h-321.038c-11.070 0-22.141 8.303-22.141 22.141v105.168c-80.259 60.886-127.308 154.984-127.308 254.616 0 166.054 146.681 304.432 318.27 304.432 168.822 0 304.432-138.378 307.2-304.432 0 0 0 0 0 0 0-124.541-44.281-210.335-135.611-257.384v-102.4c2.768-13.838-8.303-22.141-19.373-22.141zM362.551 315.157h279.524v94.097c0 8.303 5.535 16.605 11.070 19.373 85.795 41.514 124.541 110.703 124.541 226.941 0 143.914-119.005 262.919-265.686 262.919-149.449 0-276.757-121.773-276.757-262.919 0-91.33 44.281-177.124 119.005-229.708 5.535-2.768 8.303-11.070 8.303-16.605v-94.097zM644.843 165.708h-285.059c-11.070 0-22.141 8.303-22.141 22.141s8.303 22.141 22.141 22.141h285.059c11.070 0 22.141-8.303 22.141-22.141s-11.070-22.141-22.141-22.141zM644.843 96.519h-285.059c-11.070 0-22.141 8.303-22.141 22.141s8.303 22.141 22.141 22.141h285.059c11.070 0 22.141-8.303 22.141-22.141s-11.070-22.141-22.141-22.141zM512-75.070c-80.259 0-132.843 44.281-132.843 110.703 0 11.070 8.303 22.141 22.141 22.141s22.141-8.303 22.141-22.141c0-63.654 63.654-69.189 91.33-69.189s91.33 5.535 91.33 69.189c0 11.070 8.303 22.141 22.141 22.141s22.141-8.303 22.141-22.141c-5.535-66.422-58.119-110.703-138.378-110.703zM467.719 281.946c-8.303 0-16.605 5.535-19.373 16.605l-91.33 334.876c-2.768 11.070 2.768 22.141 13.838 24.908s22.141-2.768 24.908-13.838l91.33-334.876c2.768-11.070-2.768-22.141-13.838-24.908-2.768-2.768-5.535-2.768-5.535-2.768zM553.514 281.946c-2.768 0-2.768 0-5.535 0-11.070 2.768-16.605 13.838-13.838 24.908l91.33 334.876c2.768 11.070 13.838 16.605 24.908 13.838s16.605-13.838 13.838-24.908l-91.33-334.876c-2.768-8.303-11.070-13.838-19.373-13.838zM550.746 625.124c-19.373 0-35.978 8.303-49.816 13.838-27.676 13.838-35.978 13.838-47.049 2.768-8.303-8.303-22.141-8.303-30.443 0s-8.303 22.141 0 30.443c33.211 33.211 69.189 16.605 94.097 5.535s33.211-13.838 44.281-5.535c8.303 8.303 22.141 8.303 30.443 0s8.303-22.141 0-30.443c-11.070-11.070-27.676-16.605-41.514-16.605z" />
<glyph unicode="&#xe921;" glyph-name="box" d="M783.89-28.69h-759.172c-14.124 0-28.248 10.593-28.248 28.248v639.117c0 14.124 10.593 28.248 28.248 28.248h759.172c14.124 0 28.248-10.593 28.248-28.248v-639.117c0-17.655-14.124-28.248-28.248-28.248zM52.966 24.276h706.207v586.152h-706.207v-586.152zM783.89-28.69c-3.531 0-7.062 0-14.124 3.531-14.124 7.062-17.655 24.717-10.593 35.31l197.738 353.103v526.124h-74.152c-14.124 0-28.248 10.593-28.248 28.248s10.593 28.248 28.248 28.248h98.869c14.124 0 28.248-10.593 28.248-28.248v-557.903c0-3.531 0-10.593-3.531-14.124l-201.269-360.166c-3.531-10.593-10.593-14.124-21.186-14.124zM783.89 610.428c-3.531 0-10.593 0-14.124 3.531-10.593 7.062-14.124 24.717-7.062 35.31l165.959 236.579h-685.021l-194.207-268.359c-7.062-10.593-24.717-14.124-35.31-7.062s-14.124 24.717-7.062 35.31l204.8 278.952c3.531 7.062 14.124 10.593 21.186 10.593h748.579c10.593 0 17.655-7.062 24.717-14.124 3.531-7.062 3.531-17.655 0-28.248l-194.207-278.952c-10.593 0-17.655-3.531-28.248-3.531zM487.283 409.159h-201.269c-14.124 0-28.248 10.593-28.248 28.248s10.593 28.248 28.248 28.248h201.269c14.124 0 28.248-10.593 28.248-28.248s-14.124-28.248-28.248-28.248zM381.352 613.959c-7.062 0-10.593 0-17.655 3.531-10.593 7.062-14.124 24.717-3.531 38.841l201.269 264.828c7.062 10.593 24.717 14.124 38.841 3.531 10.593-7.062 14.124-24.717 3.531-38.841l-201.269-264.828c-7.062-3.531-14.124-7.062-21.186-7.062z" />
<glyph unicode="&#xe922;" glyph-name="rocket-solid" horiz-adv-x="1021" d="M1016.616 939.262c-1.081 8.79-7.975 15.684-16.672 16.756l-0.093 0.009c-19.468 2.538-41.984 3.987-64.838 3.987-146.132 0-278.431-59.224-374.204-154.98l-128.964-128.964-186.104-24.004c-4.362-0.606-8.183-2.565-11.111-5.432l0.003 0.003-179.635-179.386c-3.542-3.514-5.735-8.383-5.735-13.765 0-1.997 0.302-3.924 0.863-5.738l-0.037 0.137c2.147-6.816 7.84-11.906 14.862-13.15l0.115-0.017 135.766-24.961 26.583-26.583-56.786-30.723c-5.275-2.915-9.032-8.028-10.051-14.070l-0.016-0.116c-0.152-0.902-0.239-1.941-0.239-3 0-5.291 2.169-10.076 5.665-13.513l0.003-0.003 215.163-215.413c3.501-3.507 8.34-5.677 13.687-5.679v0c0.147-0.007 0.319-0.011 0.492-0.011 0.828 0 1.635 0.095 2.408 0.275l-0.071-0.014c6.198 0.932 11.35 4.724 14.136 9.964l0.050 0.103 30.723 56.786 26.583-26.583 24.961-135.766c1.356-7.092 6.405-12.743 13.029-14.937l0.138-0.039c1.702-0.487 3.657-0.768 5.677-0.77h0.001c5.347 0.001 10.186 2.171 13.687 5.678v0l179.635 179.635c2.912 2.895 4.884 6.732 5.42 11.015l0.009 0.092 24.004 186.104 128.965 128.965c55.259 55.449 98.394 123.018 125.068 198.37l1.151 3.73c18.791 51.305 29.66 110.542 29.66 172.318 0 22.45-1.435 44.564-4.219 66.256l0.269-2.569zM203.847 448.073l-95.496 17.805 148.933 148.933 129.817 16.786zM390.804 151.517l-178.886 178.886 44.139 24.004 158.398-158.46zM675.151 196.675l-148.933-148.933-17.805 95.496 183.255 183.255zM838.27 527.823l-350.513-350.597-250.108 250.191 350.513 350.513c49.937 49.794 110.516 88.945 178.026 113.742l3.419 1.099c9.309-47.226 31.929-88.111 63.745-119.761l0.010-0.010c31.719-31.733 72.577-54.33 118.286-63.506l1.484-0.249c-25.973-70.9-65.119-131.459-114.88-181.442l0.018 0.018zM964.739 746.439c-40.94 7.255-76.527 26.404-104.015 53.698l0.011-0.011c-27.497 27.376-46.762 63-53.768 102.848l-0.168 1.156c38.365 10.829 82.425 17.054 127.938 17.054 15.844 0 31.512-0.754 46.97-2.229l-1.97 0.152c1.311-13.42 2.059-29.011 2.059-44.777 0-45.497-6.226-89.539-17.873-131.322l0.817 3.432zM569.316 675.217c-21.216-21.247-34.337-50.584-34.337-82.985 0-64.864 52.582-117.446 117.446-117.446 32.463 0 61.85 13.171 83.108 34.46l0.001 0.001c21.216 21.247 34.337 50.584 34.337 82.985 0 64.864-52.582 117.446-117.446 117.446-32.463 0-61.85-13.171-83.108-34.46l-0.001-0.001zM708.182 536.351c-14.171-14.040-33.679-22.715-55.213-22.715-43.332 0-78.46 35.128-78.46 78.46s35.128 78.46 78.46 78.46c21.658 0 41.266-8.775 55.463-22.964v0c14.158-14.223 22.911-33.838 22.911-55.496 0-21.783-8.853-41.498-23.158-55.743l-0.003-0.003zM252.105 187.897c-3.514 3.47-8.345 5.613-13.676 5.613s-10.162-2.143-13.679-5.615l-165.967-165.967c-3.47-3.514-5.613-8.345-5.613-13.676s2.143-10.162 5.615-13.679l-0.002 0.002c3.498-3.504 8.334-5.672 13.676-5.672s10.178 2.168 13.676 5.672v0l165.969 165.969c3.47 3.514 5.613 8.345 5.613 13.676s-2.143 10.162-5.615 13.679l0.002-0.002zM277.648 135.001l-74.883-74.883c-3.47-3.514-5.613-8.345-5.613-13.676s2.143-10.162 5.615-13.679l-0.002 0.002c3.498-3.504 8.334-5.672 13.676-5.672s10.178 2.168 13.676 5.672v0l74.883 74.883c3.47 3.514 5.613 8.345 5.613 13.676s-2.143 10.162-5.615 13.679l0.002-0.002c-3.462 3.582-8.31 5.806-13.676 5.806s-10.214-2.224-13.671-5.8l-0.005-0.005zM176.474 26.067c-8.369-0.083-15.484-5.362-18.28-12.761l-0.045-0.136c-0.705-1.928-1.113-4.154-1.113-6.475 0-6.142 2.857-11.618 7.314-15.17l0.039-0.030c3.286-2.522 7.457-4.042 11.983-4.042 4.058 0 7.831 1.222 10.97 3.318l-0.072-0.045c4.979 3.56 8.185 9.323 8.185 15.834 0 2.67-0.539 5.213-1.514 7.528l0.048-0.128c-2.75 7.135-9.551 12.106-17.513 12.106 0 0-0.001 0-0.001 0v0zM194.3 14.211c0.52-1.29-0.25 1.040 0 0zM121.747-20.651l-10.4-10.4c-3.47-3.514-5.613-8.345-5.613-13.676s2.143-10.162 5.615-13.679l-0.002 0.002c3.498-3.504 8.334-5.672 13.676-5.672s10.178 2.168 13.676 5.672v0l10.4 10.4c3.651 3.524 5.918 8.46 5.918 13.926 0 10.684-8.661 19.345-19.345 19.345-5.466 0-10.402-2.267-13.92-5.912l-0.005-0.006zM107.831 149.707c-3.514 3.47-8.345 5.613-13.676 5.613s-10.162-2.143-13.679-5.615l-74.881-74.881c-3.47-3.514-5.613-8.345-5.613-13.676s2.143-10.162 5.615-13.679l-0.002 0.002c3.498-3.504 8.334-5.672 13.676-5.672s10.178 2.168 13.676 5.672v0l74.883 74.883c3.47 3.514 5.613 8.345 5.613 13.676s-2.143 10.162-5.615 13.679l0.002-0.002zM138.803 157.195c8.418 2.175 14.536 9.701 14.536 18.657 0 7.502-4.293 14.001-10.557 17.174l-0.11 0.050c-2.548 1.327-5.563 2.105-8.761 2.105-5.485 0-10.435-2.29-13.946-5.967l-0.007-0.007c-3.351-3.495-5.414-8.247-5.414-13.481 0-3.908 1.15-7.548 3.131-10.599l-0.046 0.076c-0.25 0.25-0.25 0.52 0 0s0.25-0.25 0 0c3.681-5.209 9.678-8.569 16.46-8.569 1.673 0 3.299 0.205 4.853 0.59l-0.138-0.029zM188.871 203.123l10.4 10.4c3.353 3.474 5.419 8.209 5.419 13.427 0 10.684-8.661 19.345-19.345 19.345-5.218 0-9.953-2.066-13.433-5.424l0.006 0.005-10.4-10.4c-3.47-3.514-5.613-8.345-5.613-13.676s2.143-10.162 5.615-13.679l-0.002 0.002c3.47-3.507 8.284-5.679 13.605-5.679 0.029 0 0.058 0 0.086 0h-0.004c5.321 0.112 10.121 2.256 13.672 5.684l-0.006-0.006z" />
<glyph unicode="&#xe923;" glyph-name="group" horiz-adv-x="1097" d="M338.857 448c-59.429-1.714-113.143-27.429-151.429-73.143h-76.571c-57.143 0-110.857 27.429-110.857 90.857 0 46.286-1.714 201.714 70.857 201.714 12 0 71.429-48.571 148.571-48.571 26.286 0 51.429 4.571 76 13.143-1.714-12.571-2.857-25.143-2.857-37.714 0-52 16.571-103.429 46.286-146.286zM950.857 84c0-92.571-61.143-148-152.571-148h-499.429c-91.429 0-152.571 55.429-152.571 148 0 129.143 30.286 327.429 197.714 327.429 19.429 0 90.286-79.429 204.571-79.429s185.143 79.429 204.571 79.429c167.429 0 197.714-198.286 197.714-327.429zM365.714 813.714c0-80.571-65.714-146.286-146.286-146.286s-146.286 65.714-146.286 146.286 65.714 146.286 146.286 146.286 146.286-65.714 146.286-146.286zM768 594.286c0-121.143-98.286-219.429-219.429-219.429s-219.429 98.286-219.429 219.429 98.286 219.429 219.429 219.429 219.429-98.286 219.429-219.429zM1097.143 465.714c0-63.429-53.714-90.857-110.857-90.857h-76.571c-38.286 45.714-92 71.429-151.429 73.143 29.714 42.857 46.286 94.286 46.286 146.286 0 12.571-1.143 25.143-2.857 37.714 24.571-8.571 49.714-13.143 76-13.143 77.143 0 136.571 48.571 148.571 48.571 72.571 0 70.857-155.429 70.857-201.714zM1024 813.714c0-80.571-65.714-146.286-146.286-146.286s-146.286 65.714-146.286 146.286 65.714 146.286 146.286 146.286 146.286-65.714 146.286-146.286z" />
</font>
</defs>
</svg>
